<?xml version="1.0" encoding="UTF-8"?>
<!DOCTYPE svg PUBLIC "-//W3C//DTD SVG 1.1//EN" "http://www.w3.org/Graphics/SVG/1.1/DTD/svg11.dtd">
<!-- Creator: CorelDRAW X6 -->
<svg xmlns="http://www.w3.org/2000/svg" xml:space="preserve" width="360.511mm" height="182.263mm" version="1.1" style="shape-rendering:geometricPrecision; text-rendering:geometricPrecision; image-rendering:optimizeQuality; fill-rule:evenodd; clip-rule:evenodd"
viewBox="0 0 36974 18693"
 xmlns:xlink="http://www.w3.org/1999/xlink">
 <defs>
  <style type="text/css">
   <![CDATA[
    .fil0 {fill:#0DA861}
    .fil1 {fill:#9D9E9E;fill-rule:nonzero}
   ]]>
  </style>
 </defs>
 <g id="Vrstva_x0020_1">
  <metadata id="CorelCorpID_0Corel-Layer"/>
  <g id="_661598080">
   <polygon class="fil0" points="9388,13256 14306,4557 11939,0 8483,0 10859,4573 7650,10098 "/>
   <polygon class="fil0" points="15697,13304 20615,4606 18248,49 14792,49 17167,4622 13959,10147 "/>
   <path class="fil0" d="M5916 49l2437 4685 -1736 2714 -4158 -7399c1152,0 2304,0 3457,0z"/>
   <path class="fil1" d="M1913 18610l701 -2624c183,-651 300,-1137 380,-1646l15 0c65,509 168,1002 321,1653l621 2617 664 0 1395 -5040 -650 0 -650 2543c-153,628 -292,1189 -394,1742l-15 0c-73,-531 -204,-1122 -343,-1727l-599 -2558 -664 0 -658 2543c-168,650 -321,1249 -401,1750l-15 0c-87,-487 -219,-1107 -365,-1743l-584 -2550 -672 0 1249 5040 664 0z"/>
   <path id="1" class="fil1" d="M7807 18693c839,0 1752,-584 1752,-1930 0,-1099 -686,-1854 -1701,-1854 -972,0 -1753,710 -1753,1922 0,1144 745,1862 1694,1862l8 0zm14 -494c-621,0 -1059,-598 -1059,-1391 0,-688 329,-1406 1081,-1406 760,0 1059,770 1059,1384 0,822 -460,1413 -1074,1413l-7 0z"/>
   <polygon id="2" class="fil1" points="10370,18610 11012,18610 11012,13301 10370,13301 "/>
   <path id="3" class="fil1" d="M12794 18610l0 -3118 847 0 0 -501 -854 0 0 -194c0,-554 146,-1047 686,-1047 190,0 314,37 417,82l80 -509c-124,-52 -314,-104 -548,-104 -292,0 -613,97 -854,336 -299,292 -416,755 -416,1264l0 172 -490 0 0 501 490 0 0 3118 642 0z"/>
   <path id="4" class="fil1" d="M14226 18610l642 0 0 -1936c0,-105 8,-210 22,-307 88,-486 409,-838 862,-838 88,0 153,8 219,15l0 -620c-58,-8 -110,-15 -175,-15 -431,0 -825,306 -986,792l-22 0 -29 -710 -563 0c22,336 30,703 30,1129l0 2490z"/>
   <path id="5" class="fil1" d="M19067 16389c0,-725 -263,-1480 -1351,-1480 -445,0 -876,127 -1168,314l146 441c248,-172 591,-269 927,-269 723,-8 804,538 804,837l0 75c-1366,-7 -2125,471 -2125,1346 0,524 365,1040 1080,1040 504,0 891,-255 1081,-539l22 0 59 456 576 0c-36,-246 -51,-553 -51,-867l0 -1354zm-628 1002c0,68 -7,143 -29,210 -102,306 -402,606 -869,606 -321,0 -599,-195 -599,-629 0,-703 796,-830 1497,-815l0 628z"/>
   <path id="6" class="fil1" d="M20097 18610l628 0 0 -2183c0,-112 15,-225 51,-322 102,-329 402,-658 796,-658 489,0 738,411 738,987l0 2176 628 0 0 -2243c0,-112 22,-232 51,-329 117,-314 394,-591 767,-591 511,0 766,411 766,1114l0 2049 628 0 0 -2131c0,-1256 -693,-1570 -1168,-1570 -336,0 -562,89 -774,254 -146,112 -292,262 -402,471l-14 0c-154,-426 -519,-725 -993,-725 -592,0 -921,321 -1118,665l-22 0 -29 -583 -562 0c14,299 29,598 29,980l0 2639z"/>
   <path id="7" class="fil1" d="M26830 18610l0 -3619 -643 0 0 3619 643 0zm-329 -4225c249,0 402,-187 402,-404 0,-231 -161,-411 -394,-411 -241,0 -402,180 -402,411 0,217 153,404 387,404l7 0z"/>
   <path id="8" class="fil1" d="M30854 14991l-643 0 0 2213c0,128 -22,247 -58,337 -117,299 -416,606 -847,606 -577,0 -789,-471 -789,-1159l0 -1997 -643 0 0 2116c0,1264 665,1586 1220,1586 628,0 1008,-382 1168,-673l15 0 36 590 570 0c-22,-284 -29,-613 -29,-994l0 -2625z"/>
   <path id="9" class="fil1" d="M31920 18610l628 0 0 -2183c0,-112 15,-225 51,-322 102,-329 402,-658 796,-658 489,0 738,411 738,987l0 2176 628 0 0 -2243c0,-112 22,-232 51,-329 117,-314 394,-591 767,-591 511,0 767,411 767,1114l0 2049 628 0 0 -2131c0,-1256 -694,-1570 -1169,-1570 -336,0 -562,89 -774,254 -146,112 -292,262 -402,471l-14 0c-154,-426 -519,-725 -993,-725 -592,0 -921,321 -1118,665l-22 0 -29 -583 -562 0c14,299 29,598 29,980l0 2639z"/>
  </g>
 </g>
</svg>
